<svg width="30" height="31" viewBox="0 0 30 31" fill="none" xmlns="http://www.w3.org/2000/svg">
<path d="M29.6658 15.5C29.6658 13.6758 26.9392 12.0753 22.8365 11.1664C23.4374 9.62235 23.4835 8.38395 22.8341 7.7345C22.1783 7.07869 20.92 7.13201 19.353 7.75121C18.4473 3.59826 16.8364 0.833336 14.9996 0.833336C13.1627 0.833336 11.5399 3.61816 10.6358 7.79658C9.01544 7.1336 7.71181 7.06197 7.0401 7.7345C6.38749 8.38713 6.43683 9.63588 7.04805 11.1918C3.00902 12.1055 0.333313 13.6925 0.333313 15.5C0.333313 17.3075 3.052 18.9199 7.14595 19.8304C6.44399 21.4978 6.35406 22.8429 7.0401 23.5289C7.71977 24.2086 9.04489 24.1267 10.69 23.4438C11.6028 27.4877 13.1914 30.1667 14.9996 30.1667C16.8078 30.1667 18.3836 27.5084 19.2989 23.4915C20.8914 24.1314 22.1704 24.1927 22.8341 23.5289C23.517 22.8461 23.431 21.5122 22.7394 19.8559C26.897 18.951 29.6666 17.3385 29.6666 15.5H29.6658ZM15.8631 16.3643L14.9988 25.3396L14.1345 16.3643L5.15946 15.5L14.1345 14.6357L14.9988 5.66041L15.8631 14.6357L24.8381 15.5L15.8631 16.3643Z" fill="white"/>
</svg>
